<?xml version="1.0" encoding="UTF-8"?>
<svg width="1200pt" height="1200pt" version="1.1" viewBox="0 0 1200 1200" xmlns="http://www.w3.org/2000/svg">
 <g fill="#0abfcd">
  <path d="m698.18 289.09c0 54.227-43.961 98.184-98.184 98.184s-98.184-43.957-98.184-98.184c0-54.223 43.961-98.18 98.184-98.18s98.184 43.957 98.184 98.18"/>
  <path d="m516.36 190.91c21.816-20 50.91-30.91 83.637-30.91s60 10.91 83.637 30.91c63.637-30.91 109.09-96.363 109.09-172.73h-385.45c0 76.363 45.453 141.82 109.09 172.73z"/>
  <path d="m698.18 910.91c0 54.223-43.961 98.18-98.184 98.18s-98.184-43.957-98.184-98.18c0-54.227 43.961-98.184 98.184-98.184s98.184 43.957 98.184 98.184"/>
  <path d="m407.27 1181.8h383.64c0-76.363-43.637-141.82-109.09-172.73-21.816 20-50.91 30.91-83.637 30.91-32.727 0-60-10.91-83.637-30.91-61.82 30.91-107.27 96.363-107.27 172.73z"/>
  <path d="m1009.1 600c0 54.223-43.957 98.184-98.18 98.184-54.227 0-98.184-43.961-98.184-98.184s43.957-98.184 98.184-98.184c54.223 0 98.18 43.961 98.18 98.184"/>
  <path d="m1181.8 407.27c-76.363 0-141.82 43.637-172.73 109.09 20 21.816 30.91 50.91 30.91 83.637 0 30.91-10.91 60-30.91 83.637 30.91 63.637 96.363 109.09 172.73 109.09z"/>
  <path d="m387.27 600c0 54.223-43.957 98.184-98.184 98.184-54.223 0-98.18-43.961-98.18-98.184s43.957-98.184 98.18-98.184c54.227 0 98.184 43.961 98.184 98.184"/>
  <path d="m190.91 683.64c-20-21.816-30.91-50.91-30.91-83.637 0-30.91 10.91-60 30.91-83.637-30.91-63.637-96.363-109.09-172.73-109.09v383.64c76.363 1.8164 141.82-43.637 172.73-107.27z"/>
  <path d="m918.18 380c0 54.223-43.961 98.184-98.184 98.184s-98.184-43.961-98.184-98.184 43.961-98.184 98.184-98.184 98.184 43.961 98.184 98.184"/>
  <path d="m910.91 289.09c21.816 21.816 34.547 50.91 36.363 80 67.273 23.637 145.45 9.0898 200-45.453l-270.91-270.91c-54.547 54.547-69.09 132.73-45.453 200 29.09 1.8203 58.18 14.547 80 36.363z"/>
  <path d="m478.18 820c0 54.223-43.961 98.184-98.184 98.184s-98.184-43.961-98.184-98.184 43.961-98.184 98.184-98.184 98.184 43.961 98.184 98.184"/>
  <path d="m323.64 1147.3c54.547-54.547 69.09-132.73 45.453-200-29.09-1.8164-58.184-14.547-80-36.363s-34.547-50.91-36.363-80c-67.273-23.637-145.45-9.0898-200 45.453z"/>
  <path d="m918.18 820c0 54.223-43.961 98.184-98.184 98.184s-98.184-43.961-98.184-98.184 43.961-98.184 98.184-98.184 98.184 43.961 98.184 98.184"/>
  <path d="m947.27 830.91c-1.8164 29.09-14.547 58.184-36.363 80s-50.91 34.547-80 36.363c-23.637 67.273-9.0898 145.45 45.453 200l270.91-270.91c-54.547-54.547-132.73-69.09-200-45.453z"/>
  <path d="m478.18 380c0 54.223-43.961 98.184-98.184 98.184s-98.184-43.961-98.184-98.184 43.961-98.184 98.184-98.184 98.184 43.961 98.184 98.184"/>
  <path d="m252.73 369.09c1.8164-29.09 14.547-58.184 36.363-80s50.91-34.547 80-36.363c23.637-67.273 9.0898-145.45-45.453-200l-270.91 270.91c54.547 54.547 132.73 69.09 200 45.453z"/>
 </g>
</svg>
