<?xml version="1.0" encoding="UTF-8"?>
<svg width="1200pt" height="1200pt" version="1.1" viewBox="0 0 1200 1200" xmlns="http://www.w3.org/2000/svg">
 <path d="m1087.8 53.52h-834.12c-26.566 0.03125-52.031 10.598-70.816 29.383-18.785 18.785-29.352 44.254-29.383 70.816v390.24c7.8867 1.4492 15.609 3.7031 23.039 6.7188 15.238-36.906 48.195-63.535 87.48-70.68v-161.16h813.24v564h-397.08c-2.1328 20.871-9.8242 40.793-22.277 57.676-12.453 16.887-29.211 30.121-48.523 38.324 1.9648 4.8047 3.6094 9.7383 4.9219 14.762h473.52c26.625-0.035156 52.148-10.648 70.945-29.512 18.793-18.863 29.316-44.422 29.254-71.051v-739.44c-0.0625-26.547-10.645-51.984-29.426-70.742s-44.23-29.309-70.773-29.34zm-298.08 183.12c-11.105 0-21.758-4.4141-29.613-12.266-7.8516-7.8555-12.266-18.508-12.266-29.613 0-11.109 4.4141-21.762 12.266-29.617 7.8555-7.8516 18.508-12.266 29.613-12.266 11.109 0 21.762 4.4141 29.613 12.266 7.8555 7.8555 12.27 18.508 12.27 29.617 0 11.105-4.4141 21.758-12.27 29.613-7.8516 7.8516-18.504 12.266-29.613 12.266zm124.32 0c-11.105 0-21.758-4.4141-29.613-12.266-7.8516-7.8555-12.266-18.508-12.266-29.613 0-11.109 4.4141-21.762 12.266-29.617 7.8555-7.8516 18.508-12.266 29.613-12.266 11.109 0 21.762 4.4141 29.613 12.266 7.8555 7.8555 12.27 18.508 12.27 29.617 0 11.105-4.4141 21.758-12.27 29.613-7.8516 7.8516-18.504 12.266-29.613 12.266zm124.32 0c-11.121 0.0625-21.809-4.3008-29.711-12.125-7.9023-7.8281-12.367-18.473-12.406-29.594-0.042969-11.121 4.3398-21.805 12.18-29.691 7.8398-7.8828 18.496-12.328 29.617-12.352 11.121-0.019531 21.793 4.3828 29.664 12.238 7.875 7.8555 12.297 18.523 12.297 29.645 0 11.062-4.3789 21.68-12.18 29.527-7.8047 7.8477-18.395 12.289-29.461 12.352zm-431.28 288h-32.762 0.003906c-6.4922-0.10938-12.816 2.082-17.848 6.1914-5.0312 4.1055-8.4414 9.8633-9.6328 16.246l-5.6406 29.879v0.003907c-1.207 6.3516-0.13672 12.926 3.0234 18.566s8.2109 9.9883 14.258 12.273l30.602 12h-0.003906c2.7461 20.367 9.6055 39.965 20.16 57.598l-16.801 28.078 0.003906 0.003907c-3.3242 5.5508-4.5781 12.102-3.5469 18.488s4.2852 12.207 9.1836 16.43l23.039 19.801h0.003906c4.9961 4.332 11.387 6.7148 18 6.7148 6.6133 0 13.004-2.3828 18-6.7148l25.32-20.641c18.988 7.9961 39.395 12.074 60 12l15.961 28.559-0.003906 0.003906c3.2422 5.5625 8.332 9.8125 14.387 12.004 6.0508 2.1914 12.684 2.1914 18.734-0.003906l28.68-9.9609c6.1328-2.1211 11.316-6.3477 14.633-11.926 3.3203-5.5781 4.5547-12.152 3.4883-18.555l-5.2812-32.281c16.273-12.543 29.828-28.258 39.84-46.199h32.762c6.4922 0.10938 12.816-2.082 17.848-6.1914 5.0273-4.1055 8.4414-9.8633 9.6328-16.246l5.6406-29.879v-0.003906c1.207-6.3516 0.13672-12.926-3.0234-18.566-3.1602-5.6406-8.2109-9.9883-14.258-12.273l-30.602-12c-2.7461-20.367-9.6055-39.965-20.16-57.598l16.801-28.078v-0.003906c3.3203-5.5508 4.5781-12.098 3.5469-18.488-1.0312-6.3867-4.2852-12.207-9.1875-16.43l-23.039-19.801c-4.9961-4.332-11.387-6.7148-18-6.7148-6.6133 0-13.004 2.3828-18 6.7148l-25.32 20.641c-18.992-7.9922-39.398-12.07-60-12l-15.961-28.559v-0.003906c-3.2383-5.5625-8.3281-9.8125-14.383-12.004-6.0547-2.1914-12.684-2.1914-18.734 0.003906l-28.441 10.203c-6.1328 2.1211-11.316 6.3438-14.633 11.926-3.3164 5.5781-4.5508 12.148-3.4883 18.551l5.2812 32.281c-16.316 12.527-29.914 28.246-39.961 46.199zm76.203 63.359c2.8477-14.977 11.527-28.211 24.129-36.785 12.605-8.5781 28.102-11.797 43.078-8.9492 14.977 2.8477 28.207 11.531 36.785 24.137 8.5742 12.602 11.793 28.098 8.9414 43.074-2.8477 14.977-11.531 28.211-24.137 36.785s-28.102 11.789-43.078 8.9375c-14.973-2.8477-28.199-11.531-36.773-24.133-8.5742-12.602-11.793-28.094-8.9453-43.066zm-642.6 318.36 49.32 6.3594c5.1758 18.895 12.844 37.012 22.801 53.883l-30 39.719c-4.7539 6.3086-7.0547 14.129-6.4805 22.004 0.57422 7.8789 3.9844 15.281 9.6016 20.836l26.039 25.801c5.6289 5.5195 13.059 8.8281 20.926 9.3125 7.8711 0.48437 15.648-1.8867 21.914-6.6719l39.48-30.48c16.98 9.7266 35.18 17.152 54.117 22.078l6.9609 49.32c1.1562 7.8125 5.0977 14.945 11.094 20.082 6 5.1367 13.648 7.9336 21.547 7.8789h36c7.8867-0.074219 15.48-2.9922 21.387-8.2188 5.9102-5.2227 9.7344-12.402 10.773-20.223l6.7188-50.039c18.891-5.1797 37.012-12.848 53.883-22.801l39.84 30c6.3164 4.7266 14.129 7.0156 22 6.4414 7.8711-0.57422 15.27-3.9688 20.84-9.5625l25.68-26.039c5.4297-5.5664 8.7031-12.887 9.2305-20.648 0.52734-7.7617-1.7227-15.457-6.3516-21.711l-30.48-39.48c9.7266-16.98 17.148-35.18 22.082-54.121l49.32-6.9609v0.003906c7.8125-1.1289 14.953-5.0391 20.113-11.016 5.1602-5.9727 7.9883-13.609 7.9648-21.504v-36c-0.074219-7.8867-2.9922-15.48-8.2188-21.391-5.2227-5.9062-12.402-9.7305-20.223-10.77l-49.32-6.3594v-0.003906c-5.1758-18.891-12.844-37.008-22.797-53.879l30-39.84c4.7266-6.3203 7.0117-14.133 6.4375-22.004-0.57031-7.8672-3.9648-15.27-9.5586-20.836l-26.039-25.68c-5.6289-5.5195-13.059-8.8281-20.93-9.3125-7.8672-0.48438-15.648 1.8828-21.91 6.6719l-39.84 30c-17.133-9.7656-35.496-17.191-54.602-22.078l-6.9609-49.32c-1.1211-7.7734-4.9961-14.883-10.922-20.039-5.9258-5.1523-13.504-8.0078-21.355-8.043h-36.602c-7.9219 0.085938-15.547 3.0352-21.461 8.3086-5.9102 5.2734-9.7148 12.512-10.699 20.371l-6.3594 49.32c-18.809 5.1992-36.844 12.867-53.641 22.801l-39.84-30c-6.3516-4.6484-14.164-6.8555-22.008-6.2148-7.8438 0.63672-15.195 4.082-20.711 9.6953l-25.441 25.68c-5.5195 5.6289-8.8281 13.059-9.3125 20.93-0.48438 7.8672 1.8828 15.648 6.6719 21.91l30.121 39.48c-9.7305 16.98-17.152 35.18-22.082 54.121l-49.32 6.9609v-0.003906c-7.7891 1.125-14.918 5.0195-20.074 10.969-5.1562 5.9531-8 13.559-8.0039 21.434v36.602-0.003906c0.054688 7.9453 2.9922 15.598 8.2695 21.535 5.2773 5.9375 12.527 9.7578 20.41 10.746zm263.28-126.96c26.707 0 51.387 14.25 64.742 37.383 13.355 23.129 13.355 51.629 0 74.758-13.355 23.133-38.035 37.383-64.742 37.383-26.711 0-51.391-14.25-64.746-37.383-13.352-23.129-13.352-51.629 0-74.758 13.355-23.133 38.035-37.383 64.746-37.383z" fill="#0abfcd"/>
</svg>
