<?xml version="1.0" encoding="UTF-8"?>
<svg width="1200pt" height="1200pt" version="1.1" viewBox="0 0 1200 1200" xmlns="http://www.w3.org/2000/svg">
 <g fill="#0abfcd">
  <path d="m859.92 841.41c-31.172 0-56.25-25.312-56.25-56.25 0-31.172 25.312-56.25 56.25-56.25 4.9219 0 9.8438 0.70312 14.531 2.1094 3.9844-32.344 10.547-60 16.641-82.5-28.359-12.188-75.703-28.125-136.17-29.297-68.438-1.4062-121.88 16.406-151.88 29.062-29.766-12.656-83.203-30.469-151.88-29.062-60.469 1.1719-107.81 17.109-136.17 29.297 6.3281 22.266 12.422 49.453 16.406 81.328 3.0469-0.46875 5.8594-0.70312 8.9062-0.70312 31.172 0 56.25 25.312 56.25 56.25 0 31.172-25.312 56.25-56.25 56.25-2.1094 0-3.75-0.23438-5.8594-0.46875-3.2812 44.297-11.25 81.797-19.453 110.39 23.438-12.891 72.656-36.094 138.98-37.266 71.25-1.1719 124.22 23.672 148.59 36.797v0.46875c0.23438 0 0.46875-0.23438 0.46875-0.23438l0.46875 0.23438v-0.46875c24.141-13.125 77.109-37.969 148.59-36.797 66.328 1.1719 115.55 24.375 138.98 37.266-7.9688-28.828-16.406-66.562-19.453-111.33-3.9844 0.9375-7.7344 1.1719-11.719 1.1719z"/>
  <path d="m906.33 785.39c0 25.887-20.988 46.875-46.875 46.875s-46.875-20.988-46.875-46.875 20.988-46.875 46.875-46.875 46.875 20.988 46.875 46.875"/>
  <path d="m387.42 785.39c0 25.887-20.988 46.875-46.875 46.875s-46.875-20.988-46.875-46.875 20.988-46.875 46.875-46.875 46.875 20.988 46.875 46.875"/>
  <path d="m545.62 571.88c-32.109 7.2656-61.875 20.859-87.891 39.141 64.922 1.4062 116.02 15 145.31 27.422 29.062-12.188 79.219-25.781 143.67-27.422-26.25-18.281-55.781-31.875-88.125-39.141 64.219-22.969 110.16-84.609 110.16-157.03 0-92.109-74.766-166.64-166.64-166.64s-166.64 74.766-166.64 166.64c0 72.656 45.938 134.06 110.16 157.03z"/>
  <path d="m600 1185.9c-156.56 0-303.75-60.938-414.38-171.56s-171.56-257.81-171.56-414.38 60.938-303.75 171.56-414.38 257.81-171.56 414.38-171.56 303.75 60.938 414.38 171.56 171.56 257.81 171.56 414.38-60.938 303.75-171.56 414.38-257.81 171.56-414.38 171.56zm0-1134.4c-302.34 0-548.44 246.09-548.44 548.44s246.09 548.44 548.44 548.44 548.44-246.09 548.44-548.44-246.09-548.44-548.44-548.44z"/>
 </g>
</svg>
